PathFileType	4	(X/Y/Z)	./resultDataOpenSim/trcMotMarkerGrf/sub10/qtm-01-08.trc
DataRate	CameraRate	NumFrames	NumMarkers	Units	OrigDataRate	OrigDataStartFrame	OrigNumFrames
250.000000	250.000000	11	24	m	250.000000	1	435
Frame#	Time	L.Toe.Tip			R.Toe.Tip			L.Ankle.Lat			R.Ankle.Lat			L.Ankle.Med			R.Ankle.Med			L.Heel			R.Heel			L.Knee.Lat			R.Knee.Lat			L.Knee.Med			R.Knee.Med			L.Thigh.Upper			R.Thigh.Upper			L.ASIS			R.ASIS			V.Sacral			L.Acromium			R.Acromium			C7			L.Elbow			R.Elbow			L.Wrist.Lat			R.Wrist.Lat
		X1	Y1	Z1	X2	Y2	Z2	X3	Y3	Z3	X4	Y4	Z4	X5	Y5	Z5	X6	Y6	Z6	X7	Y7	Z7	X8	Y8	Z8	X9	Y9	Z9	X10	Y10	Z10	X11	Y11	Z11	X12	Y12	Z12	X13	Y13	Z13	X14	Y14	Z14	X15	Y15	Z15	X16	Y16	Z16	X17	Y17	Z17	X18	Y18	Z18	X19	Y19	Z19	X20	Y20	Z20	X21	Y21	Z21	X22	Y22	Z22	X23	Y23	Z23	X24	Y24	Z24

1	0	-1.5799128	0.037155674	-0.19365649	-0.91225739	0.12456734	-0.11085729	-1.708545	0.072544829	-0.21029714	-1.044153	0.070280485	-0.073971995	-1.6965557	0.093815292	-0.12923892	-1.0408947	0.11554128	-0.15135946	NaN	NaN	NaN	-1.0747535	0.031200985	-0.12639812	-1.5686355	0.43430407	-0.25090673	-1.2089622	0.43446574	-0.0026761163	-1.5558478	0.40727949	-0.13139085	-1.2154171	0.44038907	-0.13357229	-1.4480554	0.80969817	-0.31349726	-1.3474025	0.82097713	0.064802003	-1.36048	0.90638665	-0.25982924	-1.3001795	0.91369808	-0.021499718	-1.5207743	0.92638022	-0.089733304	-1.3541956	1.3720612	-0.29766041	-1.3908076	1.3786855	0.029152467	-1.4527832	1.4115787	-0.14826634	-1.3946831	1.0234891	-0.35922506	NaN	NaN	NaN	-1.185093	0.88710403	-0.34195349	-1.5310357	0.86019234	0.15325579
2	0.004	-1.5798453	0.037119137	-0.19360614	-0.90281154	0.12616916	-0.11088601	-1.708052	0.073478742	-0.20996028	-1.0341561	0.070694692	-0.07355896	-1.6957339	0.094469254	-0.12891663	-1.0313314	0.11622606	-0.15080881	NaN	NaN	NaN	-1.0643945	0.031672645	-0.12542467	-1.5651199	0.43398826	-0.25095178	-1.2017552	0.4338947	-0.0018465752	-1.5519262	0.40671498	-0.13147065	-1.2101272	0.43891682	-0.13258812	-1.4437338	0.80900961	-0.31385707	-1.3407305	0.8195934	0.064420579	-1.3557892	0.90537997	-0.26040443	-1.2941528	0.91236503	-0.022316144	-1.5153051	0.92521174	-0.088812455	-1.3487537	1.3705725	-0.29782617	-1.3851649	1.3774939	0.028974565	-1.4474684	1.4103481	-0.14839878	-1.3875254	1.0217642	-0.35863052	NaN	NaN	NaN	-1.1770807	0.88712892	-0.34066652	-1.5276819	0.85949526	0.15322213
3	0.008	-1.5797789	0.037088939	-0.19355514	-0.89370862	0.12744036	-0.11082925	-1.7075813	0.074456315	-0.20964375	-1.0245204	0.071001099	-0.073045448	-1.6947309	0.095211787	-0.12859987	-1.0220983	0.11675705	-0.15016973	NaN	NaN	NaN	-1.0545945	0.032004518	-0.1245513	-1.5615677	0.43366039	-0.25097904	-1.1943336	0.43350561	-0.001111103	-1.5479448	0.40616296	-0.13154702	-1.2046036	0.43765115	-0.13172557	-1.4393963	0.80828141	-0.31411298	-1.3338656	0.81823604	0.064047376	-1.3510739	0.90439235	-0.26103379	-1.288122	0.91102924	-0.0231831	-1.5099517	0.92434246	-0.087648186	-1.3432927	1.3690967	-0.29798713	-1.379589	1.376307	0.028776627	-1.4421579	1.4091465	-0.14857375	-1.3803836	1.0200847	-0.35799054	NaN	NaN	NaN	-1.1691184	0.88715756	-0.33941423	-1.524194	0.85882314	0.15318985
4	0.012	-1.5797115	0.037067678	-0.193506	-0.88515095	0.12817517	-0.11065412	-1.7071134	0.075499667	-0.20935409	-1.0154578	0.071140678	-0.072339785	-1.693524	0.096063772	-0.12830964	-1.0133826	0.11700978	-0.14938086	NaN	NaN	NaN	-1.045622	0.03209617	-0.12355204	-1.5579186	0.43331528	-0.25100261	-1.1866157	0.43336599	-0.00052819198	-1.5438034	0.40562462	-0.13163365	-1.198697	0.43669958	-0.13102189	-1.4350884	0.80748333	-0.31406379	-1.3267779	0.81692283	0.063678789	-1.3463087	0.90342576	-0.26172916	-1.2820697	0.90969293	-0.024102612	-1.5046725	0.9237029	-0.086307727	-1.3377949	1.3676489	-0.29814308	-1.3740439	1.3751223	0.028558543	-1.436826	1.4079837	-0.14876801	-1.3733184	1.0184682	-0.3572972	NaN	NaN	NaN	-1.161218	0.88719431	-0.33819854	-1.5204623	0.85818417	0.15316362
5	0.016	-1.5796407	0.03705252	-0.19346108	-0.87719457	0.12831617	-0.11037714	-1.7065959	0.076616617	-0.20909091	-1.0070305	0.071106467	-0.071387332	-1.692223	0.096993627	-0.12807736	-1.0052111	0.11692432	-0.14843565	NaN	NaN	NaN	-1.0374994	0.031930315	-0.12221198	-1.5541261	0.43296075	-0.25104553	-1.1786605	0.43343399	-0.00011896242	-1.5394351	0.40509945	-0.13174971	-1.1923776	0.43607408	-0.13044736	-1.4308717	0.80663223	-0.31351312	-1.3195818	0.81566701	0.063308526	-1.3414791	0.90247147	-0.26246366	-1.2759729	0.90836896	-0.025042457	-1.4993175	0.92295019	-0.085090244	-1.3322556	1.3662507	-0.29828983	-1.3683864	1.373945	0.02835395	-1.431444	1.4068596	-0.1489129	-1.3663817	1.0169322	-0.35658449	NaN	NaN	NaN	-1.1533847	0.88724253	-0.33700038	-1.5164816	0.8575825	0.15314563
6	0.02	-1.5795669	0.037038367	-0.19341975	-0.8698028	0.1278889	-0.11001197	-1.7059884	0.077816581	-0.20886832	-0.99920512	0.070913631	-0.070183602	-1.6909253	0.09797383	-0.12792988	-0.99748331	0.11651524	-0.14735948	NaN	NaN	NaN	-1.0301269	0.031522557	-0.12052364	-1.5501824	0.43260633	-0.25111298	-1.1705572	0.43363584	0.000125406	-1.5349122	0.40458445	-0.1318986	-1.185678	0.43573808	-0.12996774	-1.4266982	0.80581918	-0.31255603	-1.3123713	0.8144974	0.062950307	-1.3365762	0.90152479	-0.26320811	-1.2698024	0.90707612	-0.025966575	-1.4937907	0.92188634	-0.084167183	-1.3266726	1.3649262	-0.29841586	-1.3624138	1.3728029	0.028223999	-1.4260014	1.405776	-0.14896861	-1.3595611	1.0155065	-0.3559041	NaN	NaN	NaN	-1.1456266	0.88730423	-0.33579929	-1.5123643	0.85703121	0.15312547
7	0.024	-1.5794897	0.037024395	-0.19338393	-0.86291757	0.12693945	-0.1095412	-1.7053081	0.079105123	-0.2087137	-0.99192918	0.070576117	-0.068764485	-1.6896389	0.098999496	-0.12787958	-0.9901328	0.11582694	-0.14617894	NaN	NaN	NaN	-1.0233517	0.030848964	-0.11844881	-1.5461073	0.43225057	-0.25120086	-1.1623818	0.43391385	0.00023813651	-1.5303986	0.40406019	-0.13206597	-1.1786408	0.43564614	-0.12958259	-1.422418	0.80514718	-0.31157367	-1.3051643	0.81345346	0.062639573	-1.3315996	0.90059509	-0.26394798	-1.2635379	0.90583452	-0.026843211	-1.4881096	0.92060135	-0.083466182	-1.3210546	1.3637007	-0.29851266	-1.3560206	1.3717367	0.028216959	-1.4205145	1.4047378	-0.14896485	-1.3528182	1.0142112	-0.35527845	NaN	NaN	NaN	-1.1379589	0.88738285	-0.33458682	-1.5082782	0.85653885	0.15308565
8	0.028	-1.5794028	0.037016551	-0.19336532	-0.85649354	0.12551631	-0.10892503	-1.7046514	0.080472886	-0.20862579	-0.9851794	0.070100716	-0.067184996	-1.6883152	0.10008612	-0.1279226	-0.98327577	0.11487025	-0.14493479	NaN	NaN	NaN	-1.0170814	0.029912074	-0.11596059	-1.541922	0.43189075	-0.25131005	-1.1542151	0.43423102	0.00025228296	-1.5259829	0.40350674	-0.1322376	-1.171297	0.43576635	-0.12932034	-1.4179201	0.80463353	-0.31083283	-1.2979662	0.81255713	0.062406125	-1.3265565	0.89969692	-0.26467844	-1.2572084	0.90465704	-0.027662847	-1.4823285	0.91926917	-0.082851697	-1.3154232	1.3625953	-0.29858176	-1.349362	1.3707675	0.028315698	-1.4150068	1.4037485	-0.14895775	-1.3461211	1.0130463	-0.35467521	NaN	NaN	NaN	-1.1303987	0.8874885	-0.3333692	-1.5043319	0.85609858	0.15302137
9	0.032	-1.5792945	0.037023609	-0.19338222	-0.85050217	0.123677	-0.10811421	-1.7041711	0.081888842	-0.20853491	-0.97896232	0.069492322	-0.065498824	-1.6869249	0.10126952	-0.12804372	-0.97708763	0.113638	-0.14367679	NaN	NaN	NaN	-1.0113896	0.028842925	-0.1133258	-1.537641	0.43153468	-0.25144289	-1.1461283	0.43457141	0.00018725339	-1.5216118	0.40293389	-0.13241782	-1.1636782	0.43607038	-0.12920385	-1.4132049	0.80421338	-0.31030055	-1.2908351	0.81181743	0.06225383	-1.3214552	0.89883352	-0.26539806	-1.2509253	0.9035441	-0.028438481	-1.4764817	0.91799616	-0.082253834	-1.3097951	1.3616162	-0.29862721	-1.3427649	1.3698796	0.028446177	-1.409485	1.4028099	-0.14896218	-1.3394523	1.012002	-0.35404283	-1.5299707	1.0813276	0.068246176	-1.122957	0.88763644	-0.3321588	-1.5004569	0.85570264	0.15295172
10	0.036	-1.5791622	0.037048015	-0.19343731	-0.84493774	0.12148497	-0.10707619	-1.7039403	0.083311368	-0.20836119	-0.97332073	0.068761494	-0.063741973	-1.6855039	0.10259919	-0.1282342	-0.97156771	0.11217332	-0.14242165	NaN	NaN	NaN	-1.0063997	0.027807586	-0.11092687	-1.5332752	0.43119052	-0.25160055	-1.1381419	0.43493867	6.6345627e-05	-1.5171093	0.40237037	-0.13263666	-1.1558387	0.43651729	-0.12922675	-1.4083299	0.80381725	-0.30983206	-1.2838579	0.81124638	0.062170035	-1.3162928	0.8979978	-0.26610479	-1.2447786	0.90249864	-0.029163382	-1.4705816	0.91682126	-0.081665613	-1.3041634	1.3607517	-0.29864448	-1.3364194	1.3690508	0.028553216	-1.4039392	1.4019228	-0.1489492	-1.3328098	1.0110735	-0.35336485	-1.5249132	1.0809672	0.067855662	-1.1156247	0.88783585	-0.33095853	-1.496459	0.85535184	0.15290773
11	0.04	-1.5790423	0.037067484	-0.19347681	-0.8398297	0.1189939	-0.10582466	-1.7037653	0.084735751	-0.20816495	-0.9683798	0.067925766	-0.061932223	-1.6841455	0.10412899	-0.12851156	-0.96654922	0.11056431	-0.14114777	NaN	NaN	NaN	-1.0020849	0.026833212	-0.10883285	-1.5288232	0.43085861	-0.25178635	-1.1302612	0.43533388	-8.307724e-05	-1.5122131	0.40183384	-0.13294306	-1.1478426	0.4370592	-0.12935672	-1.4033386	0.80341029	-0.30933568	-1.2770648	0.8108549	0.062148013	-1.3110517	0.89718377	-0.26679333	-1.2387108	0.90154288	-0.029798834	-1.4646272	0.91575398	-0.081109231	-1.298504	1.3599909	-0.29862194	-1.3302706	1.368287	0.028637564	-1.3983545	1.4010892	-0.14888207	-1.3262047	1.0102647	-0.35267123	-1.5198017	1.0806333	0.06747343	-1.1083614	0.88808829	-0.32974561	-1.4922259	0.85505129	0.15291174
